<svg width="132" height="32" viewBox="0 0 132 32" fill="none" xmlns="http://www.w3.org/2000/svg">
<path d="M7.598 24.42C6.21655 24.42 5.03358 24.1421 4.04909 23.5864C3.06461 23.0306 2.3183 22.2922 1.81018 21.3713C1.31794 20.4344 1.07182 19.4261 1.07182 18.3464C1.07182 17.2666 1.31794 16.2662 1.81018 15.3453C2.3183 14.4084 3.06461 13.6621 4.04909 13.1064C5.03358 12.5506 6.21655 12.2727 7.598 12.2727C8.97945 12.2727 10.1545 12.5506 11.1231 13.1064C12.1076 13.6621 12.8459 14.4084 13.3382 15.3453C13.8463 16.2662 14.1004 17.2666 14.1004 18.3464C14.1004 19.4261 13.8463 20.4344 13.3382 21.3713C12.8459 22.2922 12.1076 23.0306 11.1231 23.5864C10.1545 24.1421 8.97945 24.42 7.598 24.42ZM7.598 22.9195C9.02709 22.9195 10.1704 22.5146 11.0278 21.7047C11.9012 20.8949 12.3378 19.7755 12.3378 18.3464C12.3378 16.9173 11.9012 15.7978 11.0278 14.988C10.1704 14.1782 9.02709 13.7733 7.598 13.7733C6.15303 13.7733 4.99388 14.1782 4.12055 14.988C3.26309 15.7978 2.83436 16.9173 2.83436 18.3464C2.83436 19.7755 3.26309 20.8949 4.12055 21.7047C4.99388 22.5146 6.15303 22.9195 7.598 22.9195ZM17.3651 24.42C17.0952 24.42 16.8808 24.3406 16.722 24.1818C16.5791 24.0072 16.5077 23.769 16.5077 23.4673V13.2255C16.5077 12.9238 16.5791 12.6935 16.722 12.5347C16.8649 12.3601 17.0793 12.2727 17.3651 12.2727C17.6351 12.2727 17.8415 12.3601 17.9844 12.5347C18.1432 12.6935 18.2226 12.9238 18.2226 13.2255V14.6307C18.8101 13.8527 19.5167 13.2652 20.3424 12.8682C21.184 12.4712 22.1049 12.2727 23.1053 12.2727C24.6138 12.2727 25.7729 12.6935 26.5828 13.5351C27.4085 14.3767 27.8213 15.5835 27.8213 17.1555V23.4673C27.8213 23.769 27.7419 24.0072 27.5831 24.1818C27.4243 24.3406 27.21 24.42 26.94 24.42C26.6542 24.42 26.4399 24.3406 26.2969 24.1818C26.154 24.0072 26.0826 23.769 26.0826 23.4673V17.1555C26.0826 14.9007 25.0187 13.7733 22.8909 13.7733C21.4936 13.7733 20.3662 14.1861 19.5088 15.0118C18.6672 15.8375 18.2464 16.9332 18.2464 18.2987V23.4673C18.2464 23.7531 18.167 23.9833 18.0082 24.158C17.8653 24.3327 17.6509 24.42 17.3651 24.42ZM32.4022 24.42C32.1323 24.42 31.9179 24.3406 31.7591 24.1818C31.6162 24.0072 31.5448 23.769 31.5448 23.4673V7.05655C31.5448 6.75485 31.6162 6.52461 31.7591 6.36582C31.9179 6.19116 32.1323 6.10382 32.4022 6.10382C32.6722 6.10382 32.8865 6.19116 33.0453 6.36582C33.2041 6.52461 33.2835 6.75485 33.2835 7.05655V23.4673C33.2835 23.7531 33.2041 23.9833 33.0453 24.158C32.9024 24.3327 32.688 24.42 32.4022 24.42ZM42.4507 30.1364C41.2757 30.1364 40.2277 29.9617 39.3067 29.6124C38.3857 29.263 37.7109 28.7867 37.2822 28.1833C37.171 28.0245 37.1154 27.8657 37.1154 27.7069C37.1154 27.4529 37.2425 27.2306 37.4965 27.04C37.5918 26.9606 37.7347 26.9209 37.9252 26.9209C38.1952 26.9209 38.4492 27.0479 38.6874 27.302C39.0368 27.7149 39.5449 28.0404 40.2118 28.2786C40.8946 28.5326 41.6171 28.6596 42.3792 28.6596C43.8083 28.6596 44.9357 28.2309 45.7614 27.3735C46.603 26.516 47.0238 25.3569 47.0238 23.896V22.2764C46.5315 22.9274 45.9043 23.4276 45.1422 23.7769C44.38 24.1104 43.5384 24.2771 42.6174 24.2771C40.6802 24.2771 39.1638 23.7293 38.0682 22.6336C36.9884 21.5221 36.4485 19.9819 36.4485 18.0129V13.154C36.4485 12.9158 36.5358 12.7173 36.7105 12.5586C36.8852 12.3839 37.0995 12.2966 37.3536 12.2966C37.6077 12.2966 37.8141 12.3839 37.9729 12.5586C38.1475 12.7173 38.2349 12.9158 38.2349 13.154V18.0129C38.2349 19.5373 38.616 20.7282 39.3782 21.5856C40.1562 22.4272 41.236 22.848 42.6174 22.848C43.983 22.848 45.0389 22.4431 45.7852 21.6333C46.5315 20.8235 46.9047 19.6722 46.9047 18.1796V13.3922C46.9047 13.0429 46.9841 12.7729 47.1429 12.5824C47.3175 12.3759 47.5557 12.2727 47.8574 12.2727C48.1432 12.2727 48.3655 12.3759 48.5243 12.5824C48.699 12.7729 48.7863 13.0429 48.7863 13.3922V23.7769C48.7863 25.0313 48.5164 26.1349 47.9765 27.0876C47.4525 28.0562 46.7142 28.8026 45.7614 29.3266C44.8087 29.8664 43.7051 30.1364 42.4507 30.1364Z" fill="black"/>
<path d="M57.9837 24.3919C56.7134 24.3919 55.5939 24.1457 54.6253 23.6535C53.6567 23.1454 52.9104 22.4308 52.3864 21.5099C51.8624 20.5889 51.6004 19.5171 51.6004 18.2944C51.6004 17.0876 51.8624 16.0317 52.3864 15.1266C52.9104 14.2056 53.6567 13.499 54.6253 13.0068C55.5939 12.4987 56.7134 12.2446 57.9837 12.2446C59.1746 12.2446 60.2067 12.4113 61.08 12.7448C61.9534 13.0782 62.6441 13.5705 63.1522 14.2215C63.2792 14.3962 63.3427 14.5629 63.3427 14.7217C63.3427 14.9599 63.2237 15.1742 62.9855 15.3648C62.8743 15.4601 62.7314 15.5077 62.5567 15.5077C62.2868 15.5077 62.0327 15.3886 61.7946 15.1504C60.953 14.2136 59.6827 13.7451 57.9837 13.7451C56.5069 13.7451 55.3637 14.1421 54.5538 14.9361C53.7599 15.7141 53.3629 16.8336 53.3629 18.2944C53.3629 19.7394 53.7678 20.8668 54.5777 21.6766C55.3875 22.4864 56.5228 22.8913 57.9837 22.8913C58.7935 22.8913 59.5398 22.7722 60.2226 22.5341C60.9054 22.28 61.469 21.9227 61.9137 21.4622C62.1836 21.1923 62.4377 21.0573 62.6758 21.0573C62.8187 21.0573 62.9775 21.1208 63.1522 21.2479C63.3745 21.4384 63.4857 21.6448 63.4857 21.8671C63.4857 22.0736 63.3983 22.2482 63.2237 22.3911C62.4456 23.0898 61.6358 23.5979 60.7942 23.9155C59.9526 24.2331 59.0158 24.3919 57.9837 24.3919ZM72.129 24.3919C70.7476 24.3919 69.5646 24.114 68.5801 23.5582C67.5957 23.0025 66.8494 22.2641 66.3412 21.3431C65.849 20.4063 65.6029 19.398 65.6029 18.3182C65.6029 17.2385 65.849 16.2381 66.3412 15.3171C66.8494 14.3803 67.5957 13.634 68.5801 13.0782C69.5646 12.5225 70.7476 12.2446 72.129 12.2446C73.5105 12.2446 74.6855 12.5225 75.6541 13.0782C76.6386 13.634 77.377 14.3803 77.8692 15.3171C78.3774 16.2381 78.6314 17.2385 78.6314 18.3182C78.6314 19.398 78.3774 20.4063 77.8692 21.3431C77.377 22.2641 76.6386 23.0025 75.6541 23.5582C74.6855 24.114 73.5105 24.3919 72.129 24.3919ZM72.129 22.8913C73.5581 22.8913 74.7014 22.4864 75.5589 21.6766C76.4322 20.8668 76.8689 19.7473 76.8689 18.3182C76.8689 16.8891 76.4322 15.7697 75.5589 14.9599C74.7014 14.1501 73.5581 13.7451 72.129 13.7451C70.6841 13.7451 69.5249 14.1501 68.6516 14.9599C67.7941 15.7697 67.3654 16.8891 67.3654 18.3182C67.3654 19.7473 67.7941 20.8668 68.6516 21.6766C69.5249 22.4864 70.6841 22.8913 72.129 22.8913ZM86.2465 24.3919C84.6904 24.3919 83.4677 23.9473 82.5785 23.0581C81.7052 22.1688 81.2685 20.9303 81.2685 19.3424V13.1973C81.2685 12.8956 81.3479 12.6654 81.5067 12.5066C81.6655 12.3319 81.8799 12.2446 82.1498 12.2446C82.4197 12.2446 82.6262 12.3319 82.7691 12.5066C82.9279 12.6654 83.0073 12.8956 83.0073 13.1973V19.3424C83.0073 20.4698 83.309 21.3431 83.9123 21.9624C84.5157 22.5817 85.3573 22.8913 86.4371 22.8913C87.2945 22.8913 88.0567 22.7008 88.7236 22.3197C89.3905 21.9386 89.9066 21.4067 90.2718 20.7239C90.6529 20.0411 90.8434 19.2551 90.8434 18.3659V13.1973C90.8434 12.8956 90.9149 12.6654 91.0578 12.5066C91.2166 12.3319 91.4389 12.2446 91.7247 12.2446C91.9946 12.2446 92.2011 12.3319 92.344 12.5066C92.5028 12.6654 92.5822 12.8956 92.5822 13.1973V23.4391C92.5822 23.7408 92.5028 23.979 92.344 24.1537C92.2011 24.3125 91.9946 24.3919 91.7247 24.3919C91.4389 24.3919 91.2166 24.3045 91.0578 24.1299C90.9149 23.9552 90.8434 23.725 90.8434 23.4391V22.0339C90.2559 22.7961 89.5731 23.3836 88.7951 23.7964C88.017 24.1934 87.1675 24.3919 86.2465 24.3919ZM96.7582 31.2753C96.4882 31.2753 96.2739 31.188 96.1151 31.0133C95.9722 30.8545 95.9007 30.6243 95.9007 30.3226V13.1973C95.9007 12.8956 95.9722 12.6654 96.1151 12.5066C96.2739 12.3319 96.4882 12.2446 96.7582 12.2446C97.044 12.2446 97.2583 12.3319 97.4013 12.5066C97.56 12.6813 97.6394 12.9115 97.6394 13.1973V14.7217C98.8621 13.0703 100.625 12.2446 102.927 12.2446C104.848 12.2446 106.357 12.7765 107.453 13.8404C108.564 14.9043 109.12 16.3651 109.12 18.223C109.12 19.4774 108.866 20.573 108.358 21.5099C107.849 22.4308 107.119 23.1454 106.166 23.6535C105.229 24.1457 104.126 24.3919 102.856 24.3919C101.76 24.3919 100.791 24.2013 99.9498 23.8202C99.1241 23.4233 98.3619 22.804 97.6633 21.9624V30.3226C97.6633 30.6084 97.5839 30.8387 97.4251 31.0133C97.2663 31.188 97.044 31.2753 96.7582 31.2753ZM102.737 22.8913C104.181 22.8913 105.309 22.4785 106.119 21.6528C106.944 20.8112 107.357 19.6521 107.357 18.1753C107.357 16.7462 106.952 15.6506 106.143 14.8884C105.349 14.1262 104.205 13.7451 102.713 13.7451C101.141 13.7451 99.9022 14.1501 98.9971 14.9599C98.092 15.7538 97.6394 16.8415 97.6394 18.223C97.6394 19.1439 97.8459 19.9617 98.2587 20.6762C98.6874 21.3749 99.2829 21.9227 100.045 22.3197C100.823 22.7008 101.72 22.8913 102.737 22.8913ZM113.169 24.3919C112.899 24.3919 112.684 24.3125 112.526 24.1537C112.383 23.979 112.311 23.7408 112.311 23.4391V7.02841C112.311 6.72672 112.383 6.49647 112.526 6.33769C112.684 6.16302 112.899 6.07569 113.169 6.07569C113.439 6.07569 113.653 6.16302 113.812 6.33769C113.971 6.49647 114.05 6.72672 114.05 7.02841V23.4391C114.05 23.725 113.971 23.9552 113.812 24.1299C113.669 24.3045 113.455 24.3919 113.169 24.3919ZM123.717 24.3919C121.653 24.3919 120.057 23.8599 118.93 22.7961C117.803 21.7322 117.239 20.2237 117.239 18.2706C117.239 16.3969 117.81 14.9281 118.954 13.8642C120.097 12.7845 121.661 12.2446 123.646 12.2446C124.869 12.2446 125.956 12.4431 126.909 12.8401C127.862 13.2211 128.6 13.769 129.124 14.4835C129.664 15.1822 129.934 15.9841 129.934 16.8891C129.934 17.5561 129.743 18.0721 129.362 18.4373C128.997 18.8025 128.489 18.9851 127.838 18.9851H119.025C119.025 20.2078 119.438 21.1685 120.264 21.8671C121.089 22.5499 122.241 22.8913 123.717 22.8913C124.622 22.8913 125.401 22.7961 126.052 22.6055C126.703 22.3991 127.314 22.0736 127.886 21.629C128.187 21.3749 128.433 21.2479 128.624 21.2479C128.767 21.2479 128.902 21.3114 129.029 21.4384C129.251 21.629 129.362 21.8274 129.362 22.0339C129.362 22.1927 129.267 22.3673 129.076 22.5579C128.425 23.1771 127.663 23.6376 126.79 23.9393C125.917 24.241 124.892 24.3919 123.717 24.3919ZM127.314 17.5799C127.6 17.5799 127.814 17.5243 127.957 17.4131C128.1 17.2861 128.171 17.0638 128.171 16.7462C128.171 16.1746 127.981 15.6585 127.6 15.1981C127.219 14.7376 126.679 14.3803 125.98 14.1262C125.297 13.8722 124.519 13.7451 123.646 13.7451C122.233 13.7451 121.113 14.0945 120.288 14.7931C119.478 15.4759 119.073 16.4048 119.073 17.5799H127.314Z" fill="#FD4949"/>
</svg>
